<svg width="77px" height="50px" viewBox="0 0 77 50" version="1.1" xmlns="http://www.w3.org/2000/svg" xmlns:xlink="http://www.w3.org/1999/xlink" style="margin:40px 0">
    <g id="Page-1" stroke="none" stroke-width="1" fill="none" fill-rule="evenodd">
        <path d="M74.9628906,0.59375 C75.8925828,0.59375 76.5123682,1.25780586 76.8222656,2.5859375 C76.8222656,3.71484939 75.4498835,4.77733877 72.7050781,5.7734375 C62.8547685,11.7278944 52.4954971,18.6783457 41.6269531,26.625 C46.6738534,29.1927212 55.8820946,34.505168 69.2519531,42.5625 C70.380865,42.5625 71.2220024,43.359367 71.7753906,44.953125 C71.5318998,46.0156303 71.0006551,46.546875 70.1816406,46.546875 L69.9160156,46.546875 C68.9641879,46.2148421 64.3600673,43.5586187 56.1035156,38.578125 C48.7987916,34.4609169 42.9108296,31.2291784 38.4394531,28.8828125 C26.1320999,37.7148879 17.1009402,43.957013 11.3457031,47.609375 C8.84438854,49.203133 7.25065447,50 6.56445312,50 C5.59048992,49.7122381 5.10351562,49.2252638 5.10351562,48.5390625 L5.10351562,48.40625 C5.10351562,47.3880157 6.56443852,46.1927152 9.48632812,44.8203125 C15.8392245,40.5924268 24.2063283,34.615924 34.5878906,26.890625 C26.1321192,22.4635195 15.0202511,17.9036693 1.25195312,13.2109375 C0.455074141,12.6796848 0.056640625,12.015629 0.056640625,11.21875 C0.056640625,10.3997355 0.720696484,9.8684908 2.04882812,9.625 C3.53190846,10.0677105 6.67510619,10.687496 11.4785156,11.484375 C11.9212262,11.9492211 12.1425781,12.3476546 12.1425781,12.6796875 L12.1425781,12.9453125 L12.0097656,13.2109375 C20.6204858,16.3763179 29.2532119,20.1393011 37.9082031,24.5 L38.0410156,24.5 C49.6621675,16.1549062 59.8443573,9.24872525 68.5878906,3.78125 C72.2181171,1.65623937 74.3430959,0.59375 74.9628906,0.59375 Z" id="Path" fill="#000000"></path>
    </g>
</svg>