<svg width="177px" height="20px" viewBox="0 0 277 8" version="1.1" xmlns="http://www.w3.org/2000/svg" xmlns:xlink="http://www.w3.org/1999/xlink">
    <g id="Page-1" stroke="none" stroke-width="1" fill="none" fill-rule="evenodd">
        <path d="M3.0546875,0.41015625 C5.51173104,0.41015625 14.9413242,1.42837523 31.34375,3.46484375 C41.9245321,4.35026484 52.4166146,4.79296875 62.8203125,4.79296875 C63.3072941,4.79296875 63.9270796,4.83723914 64.6796875,4.92578125 L65.34375,4.79296875 C66.0078158,4.79296875 66.4947901,4.83723914 66.8046875,4.92578125 C73.5117523,4.92578125 103.172914,4.26172539 155.789062,2.93359375 C165.572966,2.75650953 175.578074,2.66796875 185.804688,2.66796875 C194.171917,2.66796875 217.281061,2.93359109 255.132812,3.46484375 L259.648438,3.46484375 C265.027371,3.46484375 270.384088,3.28776219 275.71875,2.93359375 C276.515629,3.22135561 276.914062,3.7083299 276.914062,4.39453125 C276.914062,5.30208787 275.984384,6.05468451 274.125,6.65234375 C273.792967,6.65234375 273.394534,6.47526219 272.929688,6.12109375 L272.664062,6.25390625 C267.661433,6.51953258 262.393257,6.65234375 256.859375,6.65234375 C221.044092,6.12109109 198.510463,5.85546875 189.257812,5.85546875 L182.21875,5.85546875 C164.089753,5.85546875 130.222904,6.51952461 80.6171875,7.84765625 C76.5221149,7.84765625 72.3606982,7.89192664 68.1328125,7.98046875 C47.8123984,7.98046875 28.2891561,6.56381625 9.5625,3.73046875 C7.17186305,3.46484242 5.0468843,3.33203125 3.1875,3.33203125 L2.65625,3.33203125 C2.65625,3.57552205 2.43489805,3.796874 1.9921875,3.99609375 L1.4609375,3.99609375 C0.641922988,3.99609375 0.154948691,3.37630828 0,2.13671875 C0,0.985671328 1.01821898,0.41015625 3.0546875,0.41015625 Z" id="_" fill="#7692ee" fill-rule="nonzero"></path>
    </g>
</svg>