
<svg width="120px" height="58px" viewBox="0 0 189 28" version="1.1" xmlns="http://www.w3.org/2000/svg" xmlns:xlink="http://www.w3.org/1999/xlink" style="margin: -20px 0 10px 0">
    <g id="Page-1" stroke="none" stroke-width="1" fill="none" fill-rule="evenodd">
        <path d="M122.585938,0.375 L126.96875,0.375 C149.082142,0.375 168.074139,1.74738211 183.945312,4.4921875 C185.09636,4.9791691 185.671875,5.73176574 185.671875,6.75 C185.671875,7.54687898 185.007819,8.21093484 183.679688,8.7421875 L183.546875,8.7421875 C169.46868,8.03385063 157.250052,7.6796875 146.890625,7.6796875 C124.954317,7.6796875 101.313929,8.87498805 75.96875,11.265625 L75.96875,11.3984375 L76.8984375,11.3984375 C89.4492815,11.0442691 111.89437,10.6458355 144.234375,10.203125 C147.753924,10.2916671 152.225233,10.3359375 157.648438,10.3359375 L161.234375,10.3359375 C164.510433,10.3359375 166.148438,10.7786414 166.148438,11.6640625 C166.325522,11.6640625 166.414062,11.9296848 166.414062,12.4609375 C166.414062,13.6341204 165.572925,14.2981763 163.890625,14.453125 L131.882812,14.453125 C115.746013,14.453125 95.2488222,15.471344 70.390625,17.5078125 L70.390625,17.640625 L71.453125,17.640625 C122.940362,16.4010355 150.343733,15.78125 153.664062,15.78125 C155.45704,15.78125 158.157534,15.7369796 161.765625,15.6484375 C178.854252,15.6484375 187.398438,15.9583302 187.398438,16.578125 C187.686199,16.578125 187.951822,17.1093697 188.195312,18.171875 C188.195312,19.2786514 187.442716,19.9427072 185.9375,20.1640625 L179.695312,20.1640625 L179.03125,20.296875 L179.03125,20.1640625 L178.765625,20.296875 L178.5,20.1640625 C178.322916,20.2526046 178.190105,20.296875 178.101562,20.296875 L178.101562,20.1640625 C178.01302,20.1640625 177.96875,20.2083329 177.96875,20.296875 L177.304688,20.1640625 L174.914062,20.1640625 C174.914062,21.2265678 173.364599,21.7578125 170.265625,21.7578125 C154.925705,22.3776073 119.730744,24.1484229 64.6796875,27.0703125 C52.4166054,27.6901073 44.0937719,28 39.7109375,28 C38.0286374,27.7786447 37.1875,27.0260481 37.1875,25.7421875 C37.1875,24.0598874 38.9140452,23.21875 42.3671875,23.21875 C45.5989745,22.6874973 47.7682236,22.421875 48.875,22.421875 L48.875,22.2890625 L48.34375,22.2890625 C43.6288827,22.3776046 39.8216291,22.421875 36.921875,22.421875 L36.65625,22.421875 C33.7343604,22.421875 32.2734375,22.0234415 32.2734375,21.2265625 C32.0963533,21.2265625 31.9192717,20.8723994 31.7421875,20.1640625 C31.7421875,18.7031177 33.2473808,17.8177099 36.2578125,17.5078125 L36.2578125,17.375 L35.9921875,17.375 C23.7069698,18.3489632 12.8607241,19.455723 3.453125,20.6953125 C2.12499336,20.5403638 1.4609375,19.8763079 1.4609375,18.703125 C1.4609375,17.2864513 2.74477883,16.578125 5.3125,16.578125 C31.9194039,12.3945103 59.1899645,8.98569025 87.125,6.3515625 C105.121184,4.93488875 117.428352,4.2265625 124.046875,4.2265625 L124.046875,4.09375 L119.398438,4.09375 C102.044184,4.09375 72.8699966,5.86456563 31.875,9.40625 C24.3710562,9.84896055 18.5716351,10.0703125 14.4765625,10.0703125 C6.64058582,10.0703125 1.85938363,9.18490469 0.1328125,7.4140625 L0,6.75 L0,5.6875 C0.376303965,4.80207891 1.26171178,4.359375 2.65625,4.359375 C4.55990535,4.18229078 5.71093551,4.09375 6.109375,4.09375 C6.68489871,4.09375 7.03906184,4.49218352 7.171875,5.2890625 L7.171875,5.5546875 L7.0390625,6.21875 C8.83204021,6.48437633 11.3111821,6.6171875 14.4765625,6.6171875 C20.6745102,6.6171875 39.4451558,5.28907578 70.7890625,2.6328125 C90.0469713,1.12759664 107.312424,0.375 122.585938,0.375 Z M74.7734375,11.3984375 L74.7734375,11.53125 L75.8359375,11.53125 L75.8359375,11.3984375 L74.7734375,11.3984375 Z M68.9296875,17.640625 L68.9296875,17.7734375 L70.2578125,17.7734375 L70.2578125,17.640625 L68.9296875,17.640625 Z" id="t" fill="#303149" fill-rule="nonzero"></path>
    </g>
</svg>