<?xml version="1.0" encoding="UTF-8"?>
<svg width="96px" height="112px" viewBox="0 0 96 112" version="1.1" xmlns="http://www.w3.org/2000/svg" xmlns:xlink="http://www.w3.org/1999/xlink">
    <!-- Generator: Sketch 53.2 (72643) - https://sketchapp.com -->
    <title>Slice 1</title>
    <desc>Created with Sketch.</desc>
    <g id="Page-1" stroke="none" stroke-width="1" fill="none" fill-rule="evenodd">
        <rect id="Rectangle" fill="#000000" opacity="0.699999988" x="0" y="0" width="16" height="16"></rect>
        <rect id="Rectangle-Copy" fill="#000000" opacity="0.300000012" x="16" y="0" width="16" height="16"></rect>
        <rect id="Rectangle-Copy-3" fill="#000000" opacity="0.100000001" x="32" y="0" width="16" height="16"></rect>
        <rect id="Rectangle-Copy-7" fill="#000000" opacity="0.0599999987" x="48" y="16" width="16" height="16"></rect>
        <rect id="Rectangle-Copy-2" fill="#000000" opacity="0.400000006" x="0" y="16" width="16" height="16"></rect>
        <rect id="Rectangle-Copy-5" fill="#000000" opacity="0.149999991" x="0" y="32" width="16" height="16"></rect>
        <rect id="Rectangle-Copy-8" fill="#000000" opacity="0.119999997" x="16" y="32" width="16" height="16"></rect>
        <rect id="Rectangle-Copy-4" fill="#000000" opacity="0.219999999" x="16" y="16" width="16" height="16"></rect>
        <rect id="Rectangle-Copy-9" fill="#000000" opacity="0.0599999987" x="32" y="32" width="16" height="16"></rect>
        <rect id="Rectangle-Copy-11" fill="#000000" opacity="0.100000001" x="0" y="48" width="16" height="16"></rect>
        <rect id="Rectangle-Copy-12" fill="#000000" opacity="0.049999997" x="0" y="64" width="16" height="16"></rect>
        <rect id="Rectangle-Copy-15" fill="#000000" opacity="0.0299999993" x="32" y="64" width="16" height="16"></rect>
        <rect id="Rectangle-Copy-19" fill="#000000" opacity="0.0299999993" x="16" y="80" width="16" height="16"></rect>
        <rect id="Rectangle-Copy-20" fill="#000000" opacity="0.0299999993" x="64" y="80" width="16" height="16"></rect>
        <rect id="Rectangle-Copy-21" fill="#000000" opacity="0.0299999993" x="0" y="96" width="16" height="16"></rect>
        <rect id="Rectangle-Copy-22" fill="#000000" opacity="0.0299999993" x="80" y="64" width="16" height="16"></rect>
        <rect id="Rectangle-Copy-23" fill="#000000" opacity="0.0299999993" x="80" y="16" width="16" height="16"></rect>
        <rect id="Rectangle-Copy-16" fill="#000000" opacity="0.0299999993" x="64" y="32" width="16" height="16"></rect>
        <rect id="Rectangle-Copy-18" fill="#000000" opacity="0.0299999993" x="32" y="16" width="16" height="16"></rect>
        <rect id="Rectangle-Copy-17" fill="#000000" opacity="0.00999999978" x="64" y="48" width="16" height="16"></rect>
        <rect id="Rectangle-Copy-13" fill="#000000" opacity="0.049999997" x="48" y="0" width="16" height="16"></rect>
        <rect id="Rectangle-Copy-14" fill="#000000" opacity="0.0199999996" x="64" y="0" width="16" height="16"></rect>
        <rect id="Rectangle-Copy-10" fill="#000000" opacity="0.0599999987" x="16" y="48" width="16" height="16"></rect>
    </g>
</svg>