<svg width="351" height="270" xmlns="http://www.w3.org/2000/svg"><g fill-rule="evenodd"><path d="M62.82 13.742h.399c.863 0 1.527.709 1.992 2.125 0 1.063-.974 1.594-2.922 1.594-6.353 2.191-14.366 5.512-24.039 9.96-1.063.488-1.594.798-1.594.93C51.09 35.126 62.333 39.73 70.391 42.165c3.408 1.063 7.216 1.904 11.421 2.523 1.24.244 1.86.775 1.86 1.594v.532c-.221 1.062-.753 1.593-1.594 1.593-.93 0-4.383-.575-10.36-1.726-8.853-.532-13.28-.93-13.28-1.196-.266-.332-.399-.642-.399-.93v-.265c.11-.885.553-1.328 1.328-1.328l1.594.133h.133v-.133c-6.597-2.546-16.248-6.751-28.953-12.617h-.133C17.885 36.984 9.563 41.057 7.039 42.562c-.11.974-.553 1.461-1.328 1.461h-.399c-1.328-.177-1.992-.752-1.992-1.726 0-1.461 2.568-3.32 7.703-5.578 8.235-4.162 13.813-6.906 16.735-8.235-.465-.376-3.608-1.704-9.43-3.984-5.025-1.948-9.806-3.409-14.344-4.383-.177.974-.62 1.461-1.328 1.461h-.265c-.753 0-1.24-.62-1.461-1.86-.62-.398-.93-.84-.93-1.327v-.399c0-.974.797-1.46 2.39-1.46 4.605.154 13.282 2.855 26.032 8.1l3.719 1.727c17.974-8.411 28.2-12.617 30.68-12.617z" fill-rule="nonzero" opacity=".8"/><path d="M175.977 164h.93c1.792 0 3.165 1.372 4.116 4.117v.133c-.177.885-.62 1.328-1.328 1.328h-.132c-.62 0-1.284-.708-1.993-2.125-.376-.266-.73-.398-1.062-.398-1.55 0-10.36 3.94-26.43 11.82v.133c6.906 0 15.318 1.195 25.234 3.586 1.993.62 4.516 1.46 7.57 2.523l-.132-.664v-.398c0-.51.31-.908.93-1.196h.53c.532 0 1.418 1.019 2.657 3.055 3.01.93 5.091 2.435 6.242 4.516v.93c-.221 1.062-.752 1.593-1.593 1.593h-.399c-7.902-3.719-12.24-5.578-13.015-5.578-4.03-1.395-8.677-2.546-13.946-3.453-6.043-.797-13.037-1.328-20.984-1.594-15.052 7.083-24.836 11.732-29.352 13.945.177.31.266.709.266 1.196-.244.708-.686 1.062-1.328 1.062h-.531c-.2 0-.687-.531-1.461-1.594-.709-.464-1.063-1.04-1.063-1.726 0-1.085 1.55-2.236 4.649-3.453 3.541-1.86 10.315-5.047 20.32-9.563v-.132c-.11 0-.554-.045-1.328-.133-5.556 0-14.765-.399-27.625-1.196v.399c-.11.797-.51 1.195-1.196 1.195h-.265c-.908 0-1.66-1.018-2.258-3.055 0-1.15.974-1.726 2.922-1.726 16.557.62 26.164.93 28.82.93.2 0 .686.044 1.461.132.089 0 .133-.044.133-.132l1.328.132h5.18l22.71-10.625c5.756-2.656 9.563-3.984 11.423-3.984z" fill-rule="nonzero" opacity=".15"/><path d="M254.402 8.96h.266c.753 0 1.284.576 1.594 1.727v.665c0 .996-1.417 1.748-4.25 2.257-9.895 3.365-23.663 8.368-41.305 15.008v.133c5.512 2.48 16.314 6.862 32.406 13.148 4.339 1.926 6.508 3.431 6.508 4.516v.266c0 .996-.62 1.571-1.86 1.726h-.398c-1.328 0-4.471-1.107-9.43-3.32-3.541-.952-5.312-1.749-5.312-2.39v-.665l.133-.265c-12.662-4.87-21.516-8.633-26.563-11.29-6.662 2.657-14.011 5.756-22.046 9.297-.576.266-.974.399-1.196.399h-.664c-.708 0-1.15-.487-1.328-1.461v-.398c0-.62 4.339-2.745 13.016-6.376 3.52-1.682 6.22-2.833 8.101-3.453v-.132c-9.297-5.756-13.945-10.891-13.945-15.407v-.133c.243-1.505.863-2.257 1.86-2.257h.132c2.833.221 4.25.885 4.25 1.992-.177.885-.62 1.328-1.328 1.328h-.664l-.664-.133c1.35 3.985 6.264 8.279 14.742 12.883 14.167-5.866 30.148-11.754 47.945-17.664z" fill-rule="nonzero" opacity=".45"/><path d="M255.861 101c.841.11 1.262.531 1.262 1.262v.1c0 .73-1.494 1.693-4.482 2.888-9.01 4.427-19.58 10.293-31.71 17.598 9.94 2.9 22.047 6.895 36.325 11.986 0 .066.2.1.598.1.332-.664.752-.996 1.261-.996h.133c5.158 1.638 7.736 3.264 7.736 4.88 0 .886-.586 1.428-1.76 1.627h-.497c-1.44 0-9.175-2.545-23.21-7.636-6.485-2.236-14.642-4.815-24.47-7.737h-.1a737.981 737.981 0 0 0-18.86 11.489l-18.46 11.986h-.498c-.753-.11-1.129-.487-1.129-1.129v-.498c0-.465.753-1.218 2.258-2.258 6.995-5.202 16.18-11.19 27.558-17.963 3.276-1.903 4.948-2.944 5.014-3.12-8.456-2.569-18.605-6.055-30.447-10.46l-1.13.1c-.53-.177-.907-.51-1.128-.996v-1.229c.398-.664.985-.996 1.76-.996 2.435.62 9.208 2.9 20.32 6.84 3.984 1.328 8.81 2.866 14.477 4.615 14.321-8.279 27.26-15.096 38.814-20.453h.365z" fill-rule="nonzero" opacity=".05"/><path d="M349.477 48c.708.332 1.062.775 1.062 1.328v.664c0 .531-2.7 1.55-8.101 3.055-16.978 5.932-32.65 11.687-47.016 17.266v.132c13.768 2.922 25.677 6.242 35.726 9.961 2.303.797 4.118 1.196 5.446 1.196h1.062v-.133c-1.062-1.13-1.594-1.882-1.594-2.258v-.133c.178-.885.62-1.328 1.329-1.328 1.018 0 2.036.974 3.054 2.922l.133.93c0 1.97-1.417 3.12-4.25 3.453H335c-1.306 0-7.548-1.904-18.727-5.711-7.703-2.214-16.778-4.383-27.226-6.508l-35.328 14.078c-1.04.354-1.749.531-2.125.531-.753 0-1.284-.487-1.594-1.46 0-1.218 1.195-2.192 3.586-2.922.797 0 2.7-.753 5.71-2.258a620.462 620.462 0 0 1 23.509-9.43v-.133c-13.636-3.453-20.453-6.198-20.453-8.234v-.133c.177-.974.62-1.46 1.328-1.46h.265c1.483 0 2.457.397 2.922 1.194 4.804 2.125 12.241 4.25 22.313 6.375C316.672 58.891 336.726 51.896 349.344 48h.133z" fill-rule="nonzero" opacity=".2"/><path d="M99.906 100c.93 0 1.55.664 1.86 1.992 0 1.13-1.373 2.192-4.118 3.188-9.85 5.954-20.21 12.905-31.078 20.851 5.047 2.568 14.255 7.88 27.625 15.938 1.13 0 1.97.797 2.524 2.39-.244 1.063-.775 1.594-1.594 1.594h-.266c-.951-.332-5.556-2.988-13.812-7.969-7.305-4.117-13.193-7.349-17.664-9.695-12.308 8.832-21.339 15.074-27.094 18.727-2.501 1.593-4.095 2.39-4.781 2.39-.974-.288-1.461-.774-1.461-1.46v-.133c0-1.019 1.46-2.214 4.383-3.586 6.353-4.228 14.72-10.205 25.101-17.93-8.456-4.427-19.567-8.987-33.336-13.68-.797-.531-1.195-1.195-1.195-1.992 0-.819.664-1.35 1.992-1.594 1.483.443 4.626 1.063 9.43 1.86.443.464.664.863.664 1.195v.266l-.133.265c8.61 3.166 17.244 6.929 25.899 11.29h.132c11.622-8.346 21.804-15.252 30.547-20.72 3.63-2.125 5.755-3.187 6.375-3.187z" fill-rule="nonzero" opacity=".4"/><path d="M176.625 61c1.505.2 2.258.863 2.258 1.992v.531c0 2.369-7.26 5.247-21.781 8.633-.443 0-1.019-.354-1.727-1.062l-10.89 3.984v.133c24.171 5.49 36.257 10.27 36.257 14.344-.155 1.15-.642 1.726-1.46 1.726h-.134c-.708 0-1.505-.575-2.39-1.726-3.01-2.125-7.836-4.162-14.477-6.11-6.264-1.77-14.189-3.763-23.773-5.976-14.1 5.622-31.322 12.883-51.664 21.781-1.063.443-1.86.664-2.39.664-.886-.2-1.329-.642-1.329-1.328v-.398c.31-1.329 1.195-1.993 2.656-1.993C99.904 89.732 115.31 83.091 132 76.273v-.265c-18.129-3.807-33.624-7.482-46.484-11.024v.133c1.682 2.214 2.523 3.498 2.523 3.852v.133c-.177.885-.62 1.328-1.328 1.328-.863 0-2.413-1.727-4.648-5.18-.709-.686-1.063-1.395-1.063-2.125.288-1.24.863-1.86 1.727-1.86h.265c1.262 0 7.814 1.55 19.656 4.65a2283.646 2283.646 0 0 0 35.461 7.835C158.762 65.493 171.6 61.243 176.625 61z" fill-rule="nonzero" opacity=".6"/><path d="M91.906 220c.93 0 1.55.664 1.86 1.992 0 1.13-1.373 2.192-4.118 3.188-9.85 5.954-20.21 12.905-31.078 20.851 5.047 2.568 14.255 7.88 27.625 15.938 1.13 0 1.97.797 2.524 2.39-.244 1.063-.775 1.594-1.594 1.594h-.266c-.951-.332-5.556-2.988-13.812-7.969-7.305-4.117-13.193-7.349-17.664-9.695-12.308 8.832-21.339 15.074-27.094 18.727-2.501 1.593-4.095 2.39-4.781 2.39-.974-.288-1.461-.774-1.461-1.46v-.134c0-1.018 1.46-2.213 4.383-3.585 6.353-4.228 14.72-10.205 25.101-17.93-8.456-4.427-19.567-8.987-33.336-13.68-.797-.531-1.195-1.195-1.195-1.992 0-.819.664-1.35 1.992-1.594 1.483.443 4.626 1.063 9.43 1.86.443.464.664.863.664 1.195v.266l-.133.265c8.61 3.166 17.244 6.929 25.899 11.29h.132c11.622-8.346 21.804-15.252 30.547-20.72 3.63-2.125 5.755-3.187 6.375-3.187z" opacity=".1"/><path d="M65.76 156c7.787 0 13.867 4.576 18.24 13.73v.125c-.143.836-.521 1.254-1.134 1.254h-.337c-.573 0-1.462-1.212-2.667-3.636-3.781-5.684-8.185-8.526-13.212-8.526h-1.44c-2.841 0-6.132 1.023-9.871 3.071v.126h.092c1.757-.314 3.392-.47 4.904-.47 4.864 0 8.788 1.212 11.771 3.636 3.372 1.818 5.927 5.224 7.664 10.219.45 1.212.776 3.26.98 6.143 0 6.96-2.768 13.396-8.307 19.31-4.659 4.012-9.36 6.018-14.1 6.018H57.33c-4.884 0-9.257-1.964-13.12-5.893-3.473-4.075-5.21-8.997-5.21-14.764v-1.034c0-6.583 2.554-13.134 7.663-19.654C52.61 159.218 58.976 156 65.761 156zm-14.702 10.783l-.33-.216c-.863.677-1.846 1.752-2.95 3.227-3.852 5.327-5.778 10.9-5.778 16.719 0 7.376 2.869 12.682 8.607 15.92 2.227 1.045 4.223 1.567 5.989 1.567h1.745c3.873 0 7.765-1.752 11.677-5.255 2.568-2.684 4.384-5.47 5.447-8.36C76.488 187.66 77 185.212 77 183.04v-1.782c0-4.672-2.107-8.83-6.32-12.478-3.39-2.356-6.12-3.534-8.186-3.534L59.997 165c-2.669 0-5.508.594-8.517 1.783h-.422z" fill-rule="nonzero" opacity=".29"/><path d="M299.025 92c10.616 0 17.536 3.035 20.76 9.104.81 1.703 1.215 3.288 1.215 4.754v1.214c0 3.743-2.16 7.385-6.481 10.925-3.443 2.63-7.932 4.788-13.468 6.474-5.924 1.686-11.595 2.529-17.013 2.529h-1.62c-10.06 0-17.756-2.731-23.089-8.194-1.553-2.14-2.329-3.995-2.329-5.563v-.708c0-4.805 5.063-9.458 15.19-13.96 1.924-.877 4.962-1.922 9.114-3.136C286.654 93.146 292.56 92 299.025 92zm1.143 3v.1c1.477.199 2.904.93 4.28 2.192.543.631.815 1.196.815 1.694v.399c0 .996-.68 1.628-2.038 1.893-.68-.083-1.02-.415-1.02-.996v-.1c0-.349.238-.714.714-1.096 0-.482-1.223-1.08-3.669-1.794-1.24-.332-3.277-.565-6.114-.697-3.583 0-7.353.498-11.31 1.494-4.552 2.193-6.828 3.72-6.828 4.585-.153 0-.288.398-.407 1.195v.598c.475 1.063.713 1.628.713 1.695v.1c-.136.664-.476.996-1.019.996h-.102c-.968 0-1.58-1.096-1.834-3.289 0-1.03.374-2.126 1.12-3.289h-.101c-3.159 1.23-6.284 2.89-9.375 4.983-3.329 2.541-4.993 4.767-4.993 6.677v.598c0 2.492 2.208 5.016 6.623 7.574 4.688 2.325 10.462 3.488 17.323 3.488 9.681 0 18.682-2.192 27.004-6.577 5.367-3.306 8.05-6.893 8.05-10.763 0-4.817-3.09-8.238-9.273-10.265C305.62 95.465 302.8 95 300.27 95h-.101zm-78.331 44c4.251 0 8.377 1.845 12.375 5.535 4.526 4.753 6.788 10.84 6.788 18.261v.126c0 8.547-2.452 15.593-7.356 21.138-3.073 2.627-6.23 3.94-9.47 3.94h-.695c-6.756 0-12.039-3.586-15.848-10.757-2.42-5.128-3.631-10.632-3.631-16.51 0-9.715 3.388-16.386 10.166-20.013 2.757-1.147 5.314-1.72 7.671-1.72zm-10.884 15.482c0 2.293.49 4.708 1.47 7.246v.246c-.08.757-.449 1.136-1.102 1.136h-.123c-1.369 0-2.237-2.845-2.605-8.535v-1.566c0-.328.041-.747.123-1.259v-.123h-.123c-1.062 2.968-1.593 6.181-1.593 9.64 0 7.492 1.961 13.816 5.884 18.974 3.084 3.173 6.373 4.759 9.867 4.759h.551c5.577 0 9.653-3.97 12.227-11.912.98-3.48 1.471-6.693 1.471-9.64 0-4.75-1.052-8.873-3.156-12.373-.838 0-1.257-.604-1.257-1.812-3.534-4.175-7.344-6.263-11.43-6.263-4.453 0-7.701 2.579-9.744 7.737-.307 1.535-.46 2.783-.46 3.745z" fill-rule="nonzero" opacity=".05"/><path d="M292.245 8h1.275c5.249 0 10.572 2.23 15.97 6.688 5.673 5.697 8.51 11.837 8.51 18.422v.093c0 7.1-2.773 12.828-8.32 17.184-4.292 3.013-9.264 4.52-14.917 4.52h-.287c-.212 0-.372.031-.478.093l-.574-.093h-.382c-5.78 0-11.294-1.785-16.543-5.356-3.23-2.663-5.206-4.83-5.929-6.502-2.38-3.674-3.57-7.679-3.57-12.013 0-6.007 2.327-11.209 6.98-15.605 1.828-1.528 3.794-2.725 5.897-3.592C283.938 9.28 288.06 8 292.245 8zm-4.169 3.371v.093c3.105.33 6.497 1.589 10.176 3.776 3.105 2.352 5.264 4.509 6.476 6.469 1.042 1.671 1.563 2.992 1.563 3.962v.185c-.064.743-.393 1.115-.989 1.115h-.191c-.638 0-.957-.599-.957-1.796-2.127-4.58-6.125-8.057-11.994-10.43-2.467-.66-4.509-1-6.125-1.021-3.403 0-5.753.69-7.05 2.073-3.68 3.178-5.519 5.963-5.519 8.357v.093c0 .949.479 1.826 1.436 2.63l.095.465c-.127.64-.446.96-.957.96h-.095c-.681 0-1.425-.723-2.233-2.167-.192-.557-.32-1.248-.383-2.074.064-.619.16-1.248.287-1.888v-.093h-.096c-1.68 3.24-2.52 6.438-2.52 9.595 0 5.84 2.552 11.07 7.656 15.692 2.105 1.589 4.296 2.837 6.571 3.745 3.807 1.259 7.135 1.888 9.985 1.888 9.953 0 16.726-3.88 20.32-11.637.979-2.559 1.468-5.066 1.468-7.521v-.558c0-5.2-2.297-10.337-6.89-15.413-4.87-4.58-9.964-6.871-15.28-6.871h-.48a26.07 26.07 0 0 0-4.274.371z" fill-rule="nonzero" opacity=".25"/><path d="M122.405 0c1.856 0 4.734.499 8.634 1.497.939 0 3.264.774 6.976 2.321 6.632 3.34 11.116 8.238 13.452 14.694 1.022 2.871 1.533 5.977 1.533 9.317 0 6.028-1.731 11.73-5.193 17.106-3.9 5.377-10.22 8.065-18.958 8.065h-1c-7.488 0-14.6-2.006-21.336-6.018-1.48-1.018-3.232-2.525-5.255-4.52-3.337-3.87-5.548-8.127-6.632-12.77-.417-1.996-.626-3.706-.626-5.132v-1.527c0-4.949 2.054-9.704 6.163-14.266C106.44 2.922 113.854 0 122.405 0zM102.63 21.181c-.417-.226-.626-.504-.626-.833 0-2.696 1.24-6.78 3.721-12.255l1.439-1.975h-.094c-4.711 2.572-8.036 6.39-9.975 11.452-.73 2.263-1.094 4.3-1.094 6.112 0 6.935 2.668 13.17 8.005 18.706 3.814 3.519 8.463 5.937 13.945 7.254 3.815.905 7.119 1.358 9.912 1.358 9.86 0 16.333-3.56 19.418-10.68 1.813-4.445 2.72-8.53 2.72-12.255 0-9.61-4.263-16.833-12.789-21.67-.813-.432-1.271-.648-1.375-.648 1.209 1.544 1.813 2.686 1.813 3.427-.146.596-.448.895-.907.895h-.187c-.459 0-.97-.628-1.532-1.883-2.627-3.293-5.441-4.94-8.443-4.94-.917-.164-2.272-.246-4.065-.246h-.844c-5.545 0-9.891 1.605-13.039 4.815-1.897 2.161-3.356 5.66-4.377 10.496-.209 1.913-.542 2.87-1 2.87h-.626z" fill-rule="nonzero" opacity=".7"/><path d="M141.527 200h1.78c7.647 0 14.693 2.194 21.136 6.581 5.038 4.045 7.557 8.559 7.557 13.542 0 7.62-6.489 13.334-19.467 17.144A48.068 48.068 0 0 1 139.774 239c-9.765 0-18.298-3.078-25.6-9.235-3.45-3.305-5.174-6.862-5.174-10.671 0-4.153 2.692-8.161 8.077-12.025 2.19-1.354 4.71-2.546 7.557-3.575 1.35-.416 3.568-.966 6.653-1.652 2.975-1.228 6.388-1.842 10.24-1.842zm6.348 3v.08c2.498.592 5.804 2.636 9.919 6.133l.11.51v.512a1.47 1.47 0 0 1-.744.699h-.523c-.717-.108-1.58-.681-2.59-1.721-4.372-3.46-9.552-5.191-15.54-5.191h-1.378c-3.399 0-5.621.475-6.668 1.425-1.947 1.112-2.92 2.367-2.92 3.766a7.69 7.69 0 0 0-.084 1.21c0 1.165.313 2.564.937 4.196v.188c-.11.681-.459 1.022-1.047 1.022h-.11c-1.01 0-1.672-1.632-1.984-4.895v-1.318c0-1.345.312-2.564.937-3.658v-.107h-.11c-2.15.592-4.721 1.81-7.715 3.658-4.243 3.101-6.365 6.329-6.365 9.682v.107c0 4.537 3.72 8.786 11.16 12.748 5.565 2.636 11.232 3.954 17 3.954h.11c8.45 0 16.339-2.205 23.668-6.616 4.041-2.869 6.062-5.989 6.062-9.36v-.215c0-4.823-3.169-9.17-9.506-13.044-4.629-2.17-8.799-3.424-12.51-3.765h-.11z" fill-rule="nonzero" opacity=".05"/><path d="M137.518 101h.92c8.286 0 15.303 2.792 21.053 8.377 1.29 1.511 1.934 2.792 1.934 3.842 0 1.092-.677 2.005-2.03 2.74 5.264 2.729 8.889 6.907 10.876 12.533.486 1.029.729 2.31.729 3.842-.613 5.06-1.437 8.356-2.473 9.889-2.748 6.11-7.831 10.696-15.25 13.762-3.975 1.343-7.843 2.015-11.605 2.015-11.076 0-19.996-3.705-26.76-11.117-4.608-5.773-6.912-12.24-6.912-19.398 0-6.362 2.304-12.156 6.912-17.384 3.276-3.212 6.5-5.406 9.67-6.582 4.418-1.68 8.73-2.519 12.936-2.519zM111 127.034c0 9.153 3.72 16.54 11.16 22.164 5.654 3.868 12.34 5.802 20.056 5.802 8.397 0 15.454-3.118 21.172-9.354 2.53-2.938 4.273-6.806 5.23-11.605.254-.718.382-1.395.382-2.029v-.824c0-2.156-1.254-5-3.763-8.53-2.125-2.41-4.208-4.143-6.25-5.2-1.338-.528-2.019-.972-2.04-1.331-.68.148-1.498.253-2.455.317-.616-.233-.925-.603-.925-1.11 0-.782.957-1.226 2.87-1.332 2.04-.338 3.061-.708 3.061-1.11 0-1.31-1.913-3.244-5.74-5.802-4.42-2.727-9.64-4.09-15.655-4.09-7.398 0-13.913 2.346-19.546 7.039-5.038 4.84-7.557 10.506-7.557 16.995z" fill-rule="nonzero" opacity=".33"/><path d="M208.063 48c5.8 0 10.805 2.427 15.015 7.28 3.281 4.622 4.922 9.802 4.922 15.542v.285c0 8.779-2.796 15.795-8.39 21.05-4.107 3.229-9.018 4.843-14.735 4.843-7.059 0-12.528-2.606-16.408-7.818C186.156 85.446 185 81.31 185 76.773c0-5.655 1.765-11.152 5.294-16.491.082-.064.289-.929.619-2.596.681-2.321 2.446-4.463 5.294-6.426 3.22-2.173 7.171-3.26 11.856-3.26zm2.733 3v.096c1.878.214 4.003 1.283 6.375 3.207 2.063 2.074 3.094 4.372 3.094 6.895-.247.513-.557.77-.928.77h-.186c-.598 0-.99-.887-1.175-2.662-.454-1.817-1.847-3.42-4.178-4.81-2.27-1.134-4.642-1.7-7.117-1.7-4.209 0-8.242 1.892-12.1 5.676-1.836 1.946-2.754 3.143-2.754 3.592v.257c0 1.047.217 2.501.65 4.361 0 .428-.299.706-.897.834h-.093c-.68 0-1.135-.909-1.362-2.726h-.092C188.01 68.98 187 73.096 187 77.137c0 4.49 1.217 8.456 3.651 11.898 3.24 3.977 7.83 5.965 13.77 5.965h.156c6.436 0 11.449-2.149 15.039-6.446 3.59-4.66 5.384-10.22 5.384-16.676v-1.155c0-4.66-1.279-9-3.837-13.02-1.898-2.93-4.9-5.067-9.005-6.414-.701-.193-1.104-.289-1.207-.289h-.155z" fill-rule="nonzero" opacity=".24"/><path d="M34.771 55h.707c6.449 0 13.626 2.267 21.531 6.8C64.337 66.837 68 72.64 68 79.208c0 7.374-4.113 13.247-12.34 17.619C50.84 98.942 46.05 100 41.295 100c-7.434 0-13.84-2.73-19.217-8.19C18.692 87.599 17 83.126 17 78.392c0-5.843 2.378-11.182 7.134-16.018C26.062 57.458 29.608 55 34.771 55zm-2.54 3.468v.124h.133c.909-.145 1.95-.218 3.124-.218 4.366 0 8.531 1.673 12.498 5.02 1.174 1.704 1.761 2.92 1.761 3.647 0 1.684-.665 2.775-1.994 3.274l-.898.125h-.864c-.576-.27-.864-.666-.864-1.185v-.094c0-.706.576-1.143 1.728-1.31v-.342c0-1.85-2.16-3.606-6.48-5.269-1.73-.561-3.313-.842-4.754-.842h-.864c-3.058 0-5.85 1.175-8.375 3.523-1.086 3.742-1.63 7.337-1.63 10.787 0 1.04.034 2.37.1 3.991-.221.624-.63.935-1.23.935h-.132c-.909 0-1.363-1.05-1.363-3.148-.088-.27-.133-.78-.133-1.528.089-2.37.255-4.365.499-5.986v-.125h-.133C20.787 73.11 20 76.124 20 78.89c0 5.258 2.327 9.987 6.98 14.185C31.41 96.358 36.375 98 41.87 98c8.708 0 15.666-2.9 20.873-8.698 2.171-2.993 3.257-6.08 3.257-9.26v-.468c0-6.92-4.875-12.782-14.624-17.583C44.883 59.33 39.588 58 35.488 58c-.31 0-1.396.156-3.257.468z" fill-rule="nonzero" opacity=".66"/></g></svg>