<svg width="96" height="112" xmlns="http://www.w3.org/2000/svg"><g fill-rule="evenodd"><path opacity=".7" d="M0 0h16v16H0z"/><path opacity=".3" d="M16 0h16v16H16z"/><path opacity=".1" d="M32 0h16v16H32z"/><path opacity=".06" d="M48 16h16v16H48z"/><path opacity=".4" d="M0 16h16v16H0z"/><path opacity=".15" d="M0 32h16v16H0z"/><path opacity=".12" d="M16 32h16v16H16z"/><path opacity=".22" d="M16 16h16v16H16z"/><path opacity=".06" d="M32 32h16v16H32z"/><path opacity=".1" d="M0 48h16v16H0z"/><path opacity=".05" d="M0 64h16v16H0z"/><path opacity=".03" d="M32 64h16v16H32zM16 80h16v16H16zm48 0h16v16H64zM0 96h16v16H0zm80-32h16v16H80zm0-48h16v16H80zM64 32h16v16H64zM32 16h16v16H32z"/><path opacity=".01" d="M64 48h16v16H64z"/><path opacity=".05" d="M48 0h16v16H48z"/><path opacity=".02" d="M64 0h16v16H64z"/><path opacity=".06" d="M16 48h16v16H16z"/></g></svg>