<?xml version="1.0" encoding="UTF-8"?>
<svg width="351px" height="270px" viewBox="0 0 351 270" version="1.1" xmlns="http://www.w3.org/2000/svg" xmlns:xlink="http://www.w3.org/1999/xlink">
    <!-- Generator: Sketch 53.2 (72643) - https://sketchapp.com -->
    <title>Group</title>
    <desc>Created with Sketch.</desc>
    <g id="Page-1" stroke="none" stroke-width="1" fill="none" fill-rule="evenodd">
        <g id="Group" fill="#000000">
            <path d="M62.8203125,13.7421875 L63.21875,13.7421875 C64.0820356,13.7421875 64.7460914,14.4505138 65.2109375,15.8671875 C65.2109375,16.9296928 64.2369889,17.4609375 62.2890625,17.4609375 C55.9361662,19.6523547 47.9232254,22.972634 38.25,27.421875 C37.1874947,27.9088566 36.65625,28.2187493 36.65625,28.3515625 C51.0886138,35.1250339 62.333293,39.7291545 70.390625,42.1640625 C73.7994962,43.2265678 77.6067498,44.0677052 81.8125,44.6875 C83.0520895,44.9309908 83.671875,45.4622355 83.671875,46.28125 L83.671875,46.8125 C83.4505197,47.8750053 82.919275,48.40625 82.078125,48.40625 C81.1484329,48.40625 77.6953424,47.8307349 71.71875,46.6796875 C62.8645391,46.1484348 58.4375,45.7500013 58.4375,45.484375 C58.1718737,45.1523421 58.0390625,44.8424494 58.0390625,44.5546875 L58.0390625,44.2890625 C58.1497401,43.4036414 58.592444,42.9609375 59.3671875,42.9609375 L60.9609375,43.09375 L61.09375,43.09375 L61.09375,42.9609375 C54.4973629,40.4153519 44.8464177,36.2096647 32.140625,30.34375 L32.0078125,30.34375 C17.8853461,36.9844082 9.56251262,41.0572841 7.0390625,42.5625 C6.92838486,43.5364632 6.48568096,44.0234375 5.7109375,44.0234375 L5.3125,44.0234375 C3.98436836,43.8463533 3.3203125,43.2708382 3.3203125,42.296875 C3.3203125,40.8359302 5.88799516,38.9765738 11.0234375,36.71875 C19.2578537,32.5572709 24.8359229,29.8125066 27.7578125,28.484375 C27.2929664,28.108071 24.1497687,26.7799593 18.328125,24.5 C13.3033603,22.5520736 8.52215811,21.0911507 3.984375,20.1171875 C3.80729078,21.0911507 3.36458688,21.578125 2.65625,21.578125 L2.390625,21.578125 C1.63801707,21.578125 1.15104277,20.9583395 0.9296875,19.71875 C0.309892734,19.3203105 0,18.8776066 0,18.390625 L0,17.9921875 C0,17.0182243 0.796867031,16.53125 2.390625,16.53125 C6.99481469,16.6861987 15.6718113,19.3866925 28.421875,24.6328125 L32.140625,26.359375 C50.1146732,17.9478746 60.3411334,13.7421875 62.8203125,13.7421875 Z" id="Path" fill-rule="nonzero" opacity="0.800000012"></path>
            <path d="M175.976562,164 L176.90625,164 C178.699228,164 180.07161,165.372382 181.023438,168.117188 L181.023438,168.25 C180.846353,169.135421 180.403649,169.578125 179.695312,169.578125 L179.5625,169.578125 C178.942705,169.578125 178.278649,168.869799 177.570312,167.453125 C177.194009,167.187499 176.839845,167.054688 176.507812,167.054688 C174.958326,167.054688 166.148518,170.994752 150.078125,178.875 L150.078125,179.007812 C156.98441,179.007812 165.395784,180.203113 175.3125,182.59375 C177.304697,183.213545 179.82811,184.054682 182.882812,185.117188 L182.75,184.453125 L182.75,184.054688 C182.75,183.54557 183.059893,183.147137 183.679688,182.859375 L184.210938,182.859375 C184.74219,182.859375 185.627598,183.877594 186.867188,185.914062 C189.877619,186.843755 191.958328,188.348948 193.109375,190.429688 L193.109375,191.359375 C192.88802,192.42188 192.356775,192.953125 191.515625,192.953125 L191.117188,192.953125 C183.214804,189.234356 178.876306,187.375 178.101562,187.375 C174.072897,185.980462 169.424506,184.829432 164.15625,183.921875 C158.113251,183.124996 151.118529,182.593751 143.171875,182.328125 C128.119716,189.411494 118.33596,194.059885 113.820312,196.273438 C113.997397,196.583335 114.085938,196.981768 114.085938,197.46875 C113.842447,198.177087 113.399743,198.53125 112.757812,198.53125 L112.226562,198.53125 C112.027343,198.53125 111.540368,198.000005 110.765625,196.9375 C110.057288,196.472654 109.703125,195.897139 109.703125,195.210938 C109.703125,194.126297 111.252589,192.975267 114.351562,191.757812 C117.893247,189.898428 124.666617,186.71096 134.671875,182.195312 L134.671875,182.0625 C134.561197,182.0625 134.118493,182.01823 133.34375,181.929688 C127.787733,181.929688 118.579491,181.531254 105.71875,180.734375 L105.71875,181.132812 C105.608072,181.929691 105.209639,182.328125 104.523438,182.328125 L104.257812,182.328125 C103.350256,182.328125 102.597659,181.309906 102,179.273438 C102,178.12239 102.973949,177.546875 104.921875,177.546875 C121.479249,178.16667 131.085924,178.476562 133.742188,178.476562 C133.941407,178.476562 134.428382,178.520833 135.203125,178.609375 C135.291667,178.609375 135.335938,178.565105 135.335938,178.476562 L136.664062,178.609375 L141.84375,178.609375 L164.554688,167.984375 C170.309925,165.328112 174.117178,164 175.976562,164 Z" id="Path" fill-rule="nonzero" opacity="0.149999991"></path>
            <path d="M254.402344,8.9609375 L254.667969,8.9609375 C255.420577,8.9609375 255.951821,9.53645258 256.261719,10.6875 L256.261719,11.3515625 C256.261719,12.3476612 254.845066,13.1002579 252.011719,13.609375 C242.117138,16.9739752 228.349047,21.9765293 210.707031,28.6171875 L210.707031,28.75 C216.218778,31.2291791 227.020753,35.6119477 243.113281,41.8984375 C247.451845,43.8242284 249.621094,45.3294217 249.621094,46.4140625 L249.621094,46.6796875 C249.621094,47.6757862 249.001308,48.2513013 247.761719,48.40625 L247.363281,48.40625 C246.03515,48.40625 242.891952,47.2994902 237.933594,45.0859375 C234.391909,44.1341098 232.621094,43.3372428 232.621094,42.6953125 L232.621094,42.03125 L232.753906,41.765625 C220.092385,36.895809 211.238306,33.1328258 206.191406,30.4765625 C199.528613,33.1328258 192.179728,36.2317531 184.144531,39.7734375 C183.569008,40.0390638 183.170574,40.171875 182.949219,40.171875 L182.285156,40.171875 C181.576819,40.171875 181.134115,39.6849007 180.957031,38.7109375 L180.957031,38.3125 C180.957031,37.6927052 185.29553,35.5677265 193.972656,31.9375 C197.492205,30.2551999 200.192699,29.1041698 202.074219,28.484375 L202.074219,28.3515625 C192.777297,22.5963254 188.128906,17.4609601 188.128906,12.9453125 L188.128906,12.8125 C188.372397,11.3072841 188.992183,10.5546875 189.988281,10.5546875 L190.121094,10.5546875 C192.954441,10.7760428 194.371094,11.4400986 194.371094,12.546875 C194.19401,13.4322961 193.751306,13.875 193.042969,13.875 L192.378906,13.875 L191.714844,13.7421875 C193.065111,17.7265824 197.979124,22.0208103 206.457031,26.625 C220.623769,20.7590853 236.60538,14.8711233 254.402344,8.9609375 Z" id="Path" fill-rule="nonzero" opacity="0.449999988"></path>
            <path d="M255.861328,101 C256.702478,101.110678 257.123047,101.531246 257.123047,102.261719 L257.123047,102.361328 C257.123047,103.091801 255.628921,104.054682 252.640625,105.25 C243.631465,109.677105 233.06191,115.542932 220.931641,122.847656 C230.870492,125.74741 242.978444,129.742813 257.255859,134.833984 C257.255859,134.900391 257.455076,134.933594 257.853516,134.933594 C258.185549,134.269528 258.606117,133.9375 259.115234,133.9375 L259.248047,133.9375 C264.405625,135.575529 266.984375,137.202466 266.984375,138.818359 C266.984375,139.70378 266.397792,140.246093 265.224609,140.445312 L264.726562,140.445312 C263.287753,140.445312 255.551502,137.899765 241.517578,132.808594 C235.031869,130.572905 226.875049,127.994155 217.046875,125.072266 L216.947266,125.072266 C211.103486,128.503272 204.817091,132.332661 198.087891,136.560547 L179.626953,148.546875 L179.128906,148.546875 C178.376298,148.436197 178,148.059899 178,147.417969 L178,146.919922 C178,146.455076 178.752597,145.702479 180.257812,144.662109 C187.252639,139.46026 196.438745,133.47269 207.816406,126.699219 C211.092464,124.795563 212.763672,123.755209 212.830078,123.578125 C204.374307,121.010404 194.22532,117.524111 182.382812,113.119141 L181.253906,113.21875 C180.722654,113.041666 180.346355,112.709638 180.125,112.222656 L180.125,110.994141 C180.523439,110.330075 181.110022,109.998047 181.884766,109.998047 C184.319674,110.617842 191.093043,112.897767 202.205078,116.837891 C206.189473,118.166022 211.014946,119.704418 216.681641,121.453125 C231.003327,113.174438 243.941348,106.356798 255.496094,101 L255.861328,101 Z" id="Path" fill-rule="nonzero" opacity="0.049999997"></path>
            <path d="M349.476562,48 C350.184899,48.3320329 350.539062,48.7747368 350.539062,49.328125 L350.539062,49.9921875 C350.539062,50.5234402 347.838569,51.5416591 342.4375,53.046875 C325.459551,58.9791963 309.787832,64.7343471 295.421875,70.3125 L295.421875,70.4453125 C309.190173,73.3672021 321.098908,76.6874814 331.148438,80.40625 C333.450532,81.203129 335.265618,81.6015625 336.59375,81.6015625 L337.65625,81.6015625 L337.65625,81.46875 C336.593745,80.3398381 336.0625,79.5872415 336.0625,79.2109375 L336.0625,79.078125 C336.239584,78.1927039 336.682288,77.75 337.390625,77.75 C338.408859,77.75 339.427078,78.7239486 340.445312,80.671875 L340.578125,81.6015625 C340.578125,83.5716244 339.161472,84.7226546 336.328125,85.0546875 L335,85.0546875 C333.694004,85.0546875 327.451879,83.1510607 316.273438,79.34375 C308.570274,77.1301973 299.494844,74.9609481 289.046875,72.8359375 L253.71875,86.9140625 C252.67838,87.2682309 251.970054,87.4453125 251.59375,87.4453125 C250.841142,87.4453125 250.309897,86.9583382 250,85.984375 C250,84.766921 251.195301,83.7929724 253.585938,83.0625 C254.382816,83.0625 256.286443,82.3099034 259.296875,80.8046875 C267.442749,77.3515452 275.278608,74.2083475 282.804688,71.375 L282.804688,71.2421875 C269.169203,67.7890452 262.351562,65.044281 262.351562,63.0078125 L262.351562,62.875 C262.528647,61.9010368 262.971351,61.4140625 263.679688,61.4140625 L263.945312,61.4140625 C265.428393,61.4140625 266.402341,61.812496 266.867188,62.609375 C271.670597,64.7343856 279.108023,66.8593644 289.179688,68.984375 C316.672012,58.8905745 336.726499,51.8958528 349.34375,48 L349.476562,48 Z" id="Path" fill-rule="nonzero" opacity="0.200000003"></path>
            <path d="M99.90625,100 C100.835942,100 101.455728,100.664056 101.765625,101.992188 C101.765625,103.121099 100.393243,104.183589 97.6484375,105.179688 C87.7981278,111.134144 77.4388564,118.084596 66.5703125,126.03125 C71.6172127,128.598971 80.825454,133.911418 94.1953125,141.96875 C95.3242244,141.96875 96.1653618,142.765617 96.71875,144.359375 C96.4752592,145.42188 95.9440145,145.953125 95.125,145.953125 L94.859375,145.953125 C93.9075473,145.621092 89.3034267,142.964869 81.046875,137.984375 C73.742151,133.867167 67.854189,130.635428 63.3828125,128.289062 C51.0754593,137.121138 42.0442996,143.363263 36.2890625,147.015625 C33.7877479,148.609383 32.1940138,149.40625 31.5078125,149.40625 C30.5338493,149.118488 30.046875,148.631514 30.046875,147.945312 L30.046875,147.8125 C30.046875,146.794266 31.5077979,145.598965 34.4296875,144.226562 C40.7825838,139.998677 49.1496877,134.022174 59.53125,126.296875 C51.0754786,121.86977 39.9636105,117.309919 26.1953125,112.617188 C25.3984335,112.085935 25,111.421879 25,110.625 C25,109.805985 25.6640559,109.274741 26.9921875,109.03125 C28.4752678,109.473961 31.6184656,110.093746 36.421875,110.890625 C36.8645855,111.355471 37.0859375,111.753905 37.0859375,112.085938 L37.0859375,112.351562 L36.953125,112.617188 C45.5638451,115.782568 54.1965713,119.545551 62.8515625,123.90625 L62.984375,123.90625 C74.6055269,115.561156 84.7877167,108.654975 93.53125,103.1875 C97.1614765,101.062489 99.2864552,100 99.90625,100 Z" id="Path" fill-rule="nonzero" opacity="0.400000006"></path>
            <path d="M176.625,61 C178.130216,61.1992197 178.882812,61.8632756 178.882812,62.9921875 L178.882812,63.5234375 C178.882812,65.8919389 171.622468,68.7695143 157.101562,72.15625 C156.658852,72.15625 156.083337,71.8020869 155.375,71.09375 L144.484375,75.078125 L144.484375,75.2109375 C168.656371,80.7005483 180.742188,85.4817505 180.742188,89.5546875 C180.587239,90.7057349 180.100265,91.28125 179.28125,91.28125 L179.148438,91.28125 C178.440101,91.28125 177.643234,90.7057349 176.757812,89.5546875 C173.747381,87.4296769 168.921908,85.3932389 162.28125,83.4453125 C156.016896,81.6744703 148.092496,79.6823027 138.507812,77.46875 C124.407482,83.0911739 107.1863,90.351518 86.84375,99.25 C85.7812447,99.6927105 84.9843777,99.9140625 84.453125,99.9140625 C83.5677039,99.7148428 83.125,99.2721388 83.125,98.5859375 L83.125,98.1875 C83.4348974,96.8593684 84.3203052,96.1953125 85.78125,96.1953125 C99.9037164,89.7317385 115.309812,83.0911799 132,76.2734375 L132,76.0078125 C113.871003,72.2005018 98.3763664,68.5260594 85.515625,64.984375 L85.515625,65.1171875 C87.1979251,67.3307402 88.0390625,68.6145816 88.0390625,68.96875 L88.0390625,69.1015625 C87.8619783,69.9869836 87.4192744,70.4296875 86.7109375,70.4296875 C85.8476519,70.4296875 84.2981883,68.7031423 82.0625,65.25 C81.3541631,64.5637987 81,63.8554724 81,63.125 C81.2877619,61.8854105 81.8632769,61.265625 82.7265625,61.265625 L82.9921875,61.265625 C84.2539126,61.265625 90.8059304,62.8150887 102.648438,65.9140625 C114.623758,68.6588679 126.443952,71.2708209 138.109375,73.75 C158.761822,65.4934483 171.600235,61.2434908 176.625,61 Z" id="Path" fill-rule="nonzero" opacity="0.600000024"></path>
            <path d="M91.90625,220 C92.8359421,220 93.4557276,220.664056 93.765625,221.992188 C93.765625,223.121099 92.3932429,224.183589 89.6484375,225.179688 C79.7981278,231.134144 69.4388564,238.084596 58.5703125,246.03125 C63.6172127,248.598971 72.825454,253.911418 86.1953125,261.96875 C87.3242244,261.96875 88.1653618,262.765617 88.71875,264.359375 C88.4752592,265.42188 87.9440145,265.953125 87.125,265.953125 L86.859375,265.953125 C85.9075473,265.621092 81.3034267,262.964869 73.046875,257.984375 C65.742151,253.867167 59.854189,250.635428 55.3828125,248.289062 C43.0754593,257.121138 34.0442996,263.363263 28.2890625,267.015625 C25.7877479,268.609383 24.1940138,269.40625 23.5078125,269.40625 C22.5338493,269.118488 22.046875,268.631514 22.046875,267.945312 L22.046875,267.8125 C22.046875,266.794266 23.5077979,265.598965 26.4296875,264.226562 C32.7825838,259.998677 41.1496877,254.022174 51.53125,246.296875 C43.0754786,241.86977 31.9636105,237.309919 18.1953125,232.617188 C17.3984335,232.085935 17,231.421879 17,230.625 C17,229.805985 17.6640559,229.274741 18.9921875,229.03125 C20.4752678,229.473961 23.6184656,230.093746 28.421875,230.890625 C28.8645855,231.355471 29.0859375,231.753905 29.0859375,232.085938 L29.0859375,232.351562 L28.953125,232.617188 C37.5638451,235.782568 46.1965713,239.545551 54.8515625,243.90625 L54.984375,243.90625 C66.6055269,235.561156 76.7877167,228.654975 85.53125,223.1875 C89.1614765,221.062489 91.2864552,220 91.90625,220 Z" id="Path" opacity="0.100000001"></path>
            <path d="M65.7608992,156 C73.5470417,156 79.6266811,160.576475 84,169.729564 L84,169.854948 C83.8569475,170.690846 83.4788859,171.108789 82.8658038,171.108789 L82.5286104,171.108789 C81.9564004,171.108789 81.0674447,169.896755 79.8617166,167.472649 C76.0810438,161.788539 71.6771369,158.946527 66.6498638,158.946527 L65.2091281,158.946527 C62.3685144,158.946527 59.0783566,159.970488 55.3385559,162.018439 L55.3385559,162.143823 L55.4305177,162.143823 C57.1880197,161.830361 58.8228807,161.673632 60.3351499,161.673632 C65.1989344,161.673632 69.1226009,162.885667 72.106267,165.309773 C75.4782185,167.127852 78.0326889,170.534087 79.7697548,175.52858 C80.2193483,176.740633 80.5463205,178.788553 80.7506812,181.672403 C80.7506812,188.631258 77.9816353,195.06758 72.4434605,200.981561 C67.7840366,204.993874 63.0838112,207 58.3426431,207 L57.3310627,207 C52.4468421,207 48.0735888,205.035668 44.2111717,201.106945 C40.7370399,197.03194 39,192.110662 39,186.342963 L39,185.308543 C39,178.725843 41.5544704,172.174587 46.6634877,165.654579 C52.610384,159.218161 58.9761241,156 65.7608992,156 Z M51.0584695,166.782506 L50.7274291,166.567376 C49.8647134,167.243502 48.8816335,168.319142 47.7781599,169.794326 C43.926034,175.121382 42,180.694218 42,186.513002 C42,193.888926 44.8689882,199.195413 50.6070507,202.432624 C52.834061,203.477547 54.830315,204 56.5958727,204 L58.3413586,204 C62.2135476,204 66.1057414,202.248244 70.0180567,198.744681 C72.5861407,196.060664 74.401829,193.274246 75.4651763,190.385343 C76.4883972,187.660349 77,185.211989 77,183.040189 L77,181.257683 C77,176.586265 74.8934003,172.427126 70.6801376,168.780142 C67.2894643,166.423944 64.560916,165.245863 62.494411,165.245863 L59.9965606,165 C57.3281609,165 54.489267,165.594163 51.4797936,166.782506 L51.0584695,166.782506 Z" id="Combined-Shape" fill-rule="nonzero" opacity="0.289999992"></path>
            <path d="M299.025316,92 C309.641403,92 316.561165,95.0346517 319.78481,101.104046 C320.594941,102.806849 321,104.391611 321,105.858382 L321,107.072254 C321,110.815048 318.839684,114.45663 314.518987,117.99711 C311.075932,120.627181 306.586526,122.785155 301.050633,124.471098 C295.126553,126.157041 289.455723,127 284.037975,127 L282.417722,127 C272.358599,127 264.662474,124.268813 259.329114,118.806358 C257.776364,116.665211 257,114.810701 257,113.242775 L257,112.534682 C257,107.729745 262.063241,103.076612 272.189873,98.5751445 C274.113934,97.6984542 277.151878,96.6531853 281.303797,95.4393064 C286.654035,93.146424 292.561149,92 299.025316,92 Z M300.16753,95 L300.16753,95.0996564 C301.645085,95.2989701 303.071668,96.029776 304.447323,97.2920962 C304.990791,97.9232563 305.262522,98.48797 305.262522,98.9862543 L305.262522,99.3848797 C305.262522,100.381448 304.583196,101.012599 303.224525,101.278351 C302.545189,101.195303 302.205527,100.863119 302.205527,100.281787 L302.205527,100.182131 C302.205527,99.8333316 302.443291,99.4679286 302.918826,99.0859107 C302.918826,98.6042359 301.69604,98.0063037 299.250432,97.2920962 C298.010644,96.9599067 295.972668,96.7273775 293.136442,96.5945017 C289.552947,96.5945017 285.782691,97.0927785 281.825561,98.0893471 C277.274013,100.281798 274.998273,101.809847 274.998273,102.67354 C274.845422,102.67354 274.709557,103.072161 274.590674,103.869416 L274.590674,104.467354 C275.066208,105.53036 275.303972,106.095074 275.303972,106.161512 L275.303972,106.261168 C275.168105,106.925547 274.828443,107.257732 274.284974,107.257732 L274.183074,107.257732 C273.215021,107.257732 272.603628,106.161523 272.348877,103.969072 C272.348877,102.939285 272.722506,101.843076 273.469775,100.680412 L273.367876,100.680412 C270.208965,101.909514 267.084068,103.570436 263.993092,105.66323 C260.664347,108.20448 259,110.430116 259,112.340206 L259,112.938144 C259,115.429566 261.207808,117.954168 265.623489,120.512027 C270.310904,122.837354 276.08517,124 282.946459,124 C292.626991,124 301.628053,121.807582 309.949914,117.42268 C315.316665,114.117395 318,110.529802 318,106.659794 C318,101.843046 314.909069,98.4215451 308.727116,96.395189 C305.619155,95.4650584 302.799955,95 300.26943,95 L300.16753,95 Z" id="Combined-Shape" fill-rule="nonzero" opacity="0.049999997"></path>
            <path d="M221.837031,139 C226.088474,139 230.213575,140.844908 234.212457,144.53478 C238.737508,149.287835 241,155.374989 241,162.796426 L241,162.921506 C241,171.468666 238.548091,178.514756 233.644198,184.059987 C230.571373,186.686676 227.414408,188 224.173208,188 L223.478669,188 C216.722662,188 211.440008,184.414416 207.630546,177.24314 C205.21017,172.114844 204,166.611389 204,160.73261 C204,151.018033 207.388476,144.347178 214.165529,140.719847 C216.922653,139.573277 219.479795,139 221.837031,139 Z M210.953013,154.482456 C210.953013,156.774865 211.443305,159.190046 212.423902,161.72807 L212.423902,161.973684 C212.342185,162.730998 211.974467,163.109649 211.320735,163.109649 L211.198161,163.109649 C209.829411,163.109649 208.961187,160.264648 208.593463,154.574561 L208.593463,153.008772 C208.593463,152.681285 208.63432,152.261698 208.716037,151.75 L208.716037,151.627193 L208.593463,151.627193 C207.531149,154.595044 207,157.808462 207,161.267544 C207,168.758809 208.961165,175.083308 212.883555,180.241228 C215.96835,183.413759 219.257388,185 222.750766,185 L223.302349,185 C228.879497,185 232.955043,181.029279 235.529111,173.087719 C236.509709,169.60817 237,166.394752 237,163.447368 C237,158.698807 235.947917,154.574579 233.843718,151.074561 C233.006125,151.074561 232.587334,150.470766 232.587334,149.263158 C229.053098,145.087698 225.243126,143 221.157303,143 C216.703757,143 213.455577,145.578922 211.412666,150.736842 C211.106229,152.271938 210.953013,153.520463 210.953013,154.482456 Z" id="Combined-Shape" fill-rule="nonzero" opacity="0.049999997"></path>
            <path d="M292.245,8 L293.52,8 C298.768776,8 304.091848,10.2292267 309.489375,14.687747 C315.163153,20.3847452 318,26.5254392 318,33.1100132 L318,33.2028986 C318,40.303505 315.226903,46.0313792 309.680625,50.386693 C305.388104,53.4003225 300.415653,54.9071146 294.763125,54.9071146 L294.47625,54.9071146 C294.263749,54.9071146 294.104376,54.9380761 293.998125,55 L293.424375,54.9071146 L293.041875,54.9071146 C287.261846,54.9071146 281.747526,53.1216692 276.49875,49.5507246 C273.268734,46.8879972 271.292504,44.7206935 270.57,43.0487484 C268.189988,39.3745974 267,35.3702457 267,31.0355731 C267,25.0289555 269.326852,19.8274265 273.980625,15.43083 C275.808134,13.903374 277.773739,12.7061967 279.8775,11.8392622 C283.93627,9.27974126 288.058729,8 292.245,8 Z M288.076283,11.3714075 L288.076283,11.4642594 C291.181245,11.7944011 294.573259,13.0530473 298.252427,15.2402358 C301.35739,17.5924952 303.515944,19.7487006 304.728155,21.7089167 C305.770232,23.3802589 306.291262,24.7008058 306.291262,25.6705969 L306.291262,25.8563007 C306.227462,26.5991194 305.89783,26.9705232 305.302358,26.9705232 L305.110957,26.9705232 C304.472951,26.9705232 304.153953,26.3721504 304.153953,25.1753869 C302.027266,20.5946713 298.029156,17.117919 292.159501,14.7450258 C289.692544,14.0847425 287.650956,13.744289 286.034674,13.7236551 C282.631976,13.7236551 280.282022,14.4148789 278.984743,15.7973471 C275.305576,18.9749606 273.466019,21.7604891 273.466019,24.1540162 L273.466019,24.2468681 C273.466019,25.1960254 273.944517,26.072951 274.901526,26.8776713 L274.997226,27.3419307 C274.869625,27.9815802 274.550627,28.3014001 274.040222,28.3014001 L273.944521,28.3014001 C273.263982,28.3014001 272.519653,27.5792261 271.711512,26.1348563 C271.52011,25.5777422 271.392511,24.8865185 271.32871,24.0611643 C271.392511,23.4421487 271.48821,22.8128256 271.615811,22.1731761 L271.615811,22.0803242 L271.520111,22.0803242 C269.840029,25.3198393 269,28.5180387 269,31.6750184 C269,37.5143991 271.551986,42.7450027 276.656033,47.366986 C278.761453,48.9557928 280.951907,50.2041222 283.227462,51.1120118 C287.034231,52.3706769 290.362445,53 293.212205,53 C303.165098,53 309.938493,49.1208936 313.532594,41.3625645 C314.510869,38.8039666 315,36.2969909 315,33.8415623 L315,33.284451 C315,28.0847198 312.703213,22.9469672 308.10957,17.8710391 C303.239458,13.2903234 298.14612,11 292.829404,11 L292.350902,11 C290.989822,11 289.564964,11.1238013 288.076283,11.3714075 Z" id="Combined-Shape" fill-rule="nonzero" opacity="0.25"></path>
            <path d="M122.40509,0 C124.261232,0 127.139252,0.498938334 131.039236,1.49682997 C131.977735,1.49682997 134.303092,2.27069351 138.015376,3.8184438 C144.647435,7.15832602 149.131307,12.0560676 151.467126,18.5118156 C152.489047,21.3832997 153,24.4889362 153,27.8288184 C153,33.8568985 151.269017,39.5590509 147.806999,44.9354467 C143.907015,50.3118424 137.587884,53 128.849417,53 L127.848356,53 C120.361221,53 113.249592,50.9940642 106.513256,46.9821326 C105.032513,45.9638758 103.280675,44.4568784 101.257688,42.4610951 C97.9208034,38.5917194 95.7101503,34.3354699 94.6256628,29.692219 C94.2085522,27.6964357 94,25.98579 94,24.5602305 L94,23.032853 C94,18.0841251 96.0542389,13.3289373 100.162778,8.76714697 C106.440293,2.9223531 113.854323,0 122.40509,0 Z M102.628836,21.1813505 C102.211926,20.9549828 102.003474,20.6771721 102.003474,20.34791 C102.003474,17.6520766 103.243763,13.5672299 105.724378,8.09324759 L107.16271,6.11768489 L107.068906,6.11768489 C102.357822,8.69004502 99.0330149,12.5073702 97.0943833,17.5697749 C96.3647908,19.8334518 96,21.8707305 96,23.681672 C96,30.6167549 98.6681841,36.8520624 104.004632,42.3877814 C107.819359,45.90677 112.467836,48.3247523 117.950203,49.6418006 C121.764929,50.5472714 125.068892,51 127.862189,51 C137.722111,51 144.194542,47.439907 147.279676,40.3196141 C149.093234,35.8745758 150,31.7897292 150,28.0649518 C150,18.4546143 145.737159,11.2315354 137.211349,6.39549839 C136.398375,5.96334189 135.93978,5.74726688 135.835553,5.74726688 C137.044592,7.29068296 137.649102,8.43279372 137.649102,9.17363344 C137.503184,9.77042099 137.200929,10.0688103 136.742328,10.0688103 L136.554719,10.0688103 C136.096118,10.0688103 135.585411,9.44116383 135.022583,8.18585209 C132.396049,4.89323113 129.581949,3.24694534 126.580197,3.24694534 C125.662995,3.08231429 124.308058,3 122.515345,3 L121.671106,3 C116.126203,3 111.779981,4.60512864 108.63231,7.81543408 C106.73537,9.97621659 105.276207,13.4745739 104.254777,18.3106109 C104.046322,20.2244469 103.712799,21.1813505 103.254198,21.1813505 L102.628836,21.1813505 Z" id="Combined-Shape" fill-rule="nonzero" opacity="0.699999988"></path>
            <path d="M141.526728,200 L143.306389,200 C150.954406,200 157.999968,202.193728 164.443286,206.58125 C169.48112,210.625715 172,215.139558 172,220.122917 C172,227.742399 165.511147,233.456925 152.533246,237.266667 C148.316798,238.422228 144.063907,239 139.774446,239 C130.009078,239 121.475917,235.921559 114.174707,229.764583 C110.724885,226.4604 109,222.903491 109,219.09375 C109,214.940951 111.692281,210.932658 117.076923,207.06875 C119.267286,205.714577 121.786166,204.522922 124.633638,203.49375 C125.984361,203.07847 128.202071,202.527781 131.286832,201.841667 C134.262075,200.613883 137.675339,200 141.526728,200 Z M147.874584,203 L147.874584,203.080685 C150.372776,203.672375 153.679156,205.716364 157.793824,209.212714 L157.904038,209.723716 L157.904038,210.234719 C157.738717,210.557459 157.490738,210.790545 157.160095,210.933985 L156.63658,210.933985 C155.920186,210.826405 155.056854,210.252654 154.046556,209.212714 C149.674721,205.752224 144.494725,204.022005 138.506413,204.022005 L137.128741,204.022005 C133.730466,204.022005 131.507844,204.497143 130.460808,205.447433 C128.513688,206.559093 127.540143,207.814174 127.540143,209.212714 C127.485035,209.553384 127.457482,209.956803 127.457482,210.422983 C127.457482,211.588433 127.769751,212.986952 128.394299,214.618582 L128.394299,214.806846 C128.284085,215.488186 127.935078,215.828851 127.347268,215.828851 L127.237055,215.828851 C126.226757,215.828851 125.565481,214.197245 125.253207,210.933985 L125.253207,209.616137 C125.253207,208.271387 125.565476,207.052165 126.190024,205.958435 L126.190024,205.850856 L126.07981,205.850856 C123.930631,206.442546 121.359002,207.661767 118.364846,209.508557 C114.121594,212.610447 112,215.837799 112,219.190709 L112,219.298289 C112,223.834579 115.719678,228.083925 123.159145,232.046455 C128.724968,234.682165 134.391737,236 140.15962,236 L140.269834,236 C148.719599,236 156.608989,233.794643 163.938242,229.383863 C167.979434,226.515063 170,223.39529 170,220.02445 L170,219.809291 C170,214.986121 166.831386,210.638161 160.494062,206.765281 C155.86506,204.595751 151.695347,203.34067 147.984798,203 L147.874584,203 Z" id="Combined-Shape" fill-rule="nonzero" opacity="0.049999997"></path>
            <path d="M137.518369,101 L138.437846,101 C146.723746,101 153.74129,103.792237 159.490689,109.376796 C160.780077,110.888405 161.424761,112.169056 161.424761,113.218785 C161.424761,114.310503 160.748371,115.223753 159.395571,115.958564 C164.658808,118.687859 168.283835,122.865718 170.27076,128.492265 C170.756922,129.521 171,130.80165 171,132.334254 C170.387013,137.393948 169.562662,140.690048 168.526925,142.222652 C165.77905,148.332075 160.695558,152.919322 153.276296,155.98453 C149.302446,157.328184 145.434342,158 141.671867,158 C130.595818,158 121.675927,154.294512 114.911928,146.883425 C110.303953,141.109916 108,134.643682 108,127.48453 C108,121.123173 110.303953,115.328755 114.911928,110.101105 C118.18824,106.888934 121.41166,104.695034 124.582285,103.519337 C129.000022,101.839771 133.312007,101 137.518369,101 Z M111,127.034146 C111,136.187038 114.719955,143.574769 122.159978,149.197561 C127.814395,153.065873 134.499687,155 142.216053,155 C150.61265,155 157.669937,151.882145 163.388125,145.646341 C165.917733,142.708115 167.660798,138.839861 168.617372,134.041463 C168.872459,133.322761 169,132.646345 169,132.012195 L169,131.187805 C169,129.031697 167.745844,126.188636 165.237493,122.658537 C163.111772,120.248768 161.028597,118.515452 158.987905,117.458537 C157.648701,116.930079 156.968481,116.486181 156.947224,116.126829 C156.266993,116.274797 155.448603,116.380487 154.492029,116.443902 C153.87557,116.211381 153.567345,115.841466 153.567345,115.334146 C153.567345,114.552029 154.523905,114.108131 156.437053,114.002439 C158.477745,113.664226 159.498076,113.294311 159.498076,112.892683 C159.498076,111.582107 157.584956,109.64798 153.758659,107.090244 C149.337159,104.363401 144.118593,103 138.102804,103 C130.705296,103 124.190059,105.346318 118.556899,110.039024 C113.518941,114.879699 111,120.544683 111,127.034146 Z" id="Combined-Shape" fill-rule="nonzero" opacity="0.329999983"></path>
            <path d="M208.063355,48 C213.86276,48 218.86751,50.426763 223.077754,55.2803618 C226.359268,59.9018319 228,65.0824433 228,70.8223514 L228,71.1072351 C228,79.8859181 225.203532,86.9024285 219.610511,92.1569767 C215.503459,95.3856751 210.591581,97 204.87473,97 C197.816379,97 192.347272,94.3938676 188.467243,89.1815245 C186.155736,85.4463638 185,81.3103155 185,76.7732558 C185,71.1177581 186.764561,65.6206124 190.293737,60.2816537 C190.37629,60.2183459 190.582672,59.3531522 190.912887,57.6860465 C191.593956,55.3647601 193.358517,53.222878 196.206623,51.2603359 C199.426222,49.0867678 203.378426,48 208.063355,48 Z M210.796417,51 L210.796417,51.0962099 C212.673734,51.3100108 214.798577,52.3789991 217.17101,54.303207 C219.233995,56.3770755 220.265472,58.6754004 220.265472,61.1982507 C220.017914,61.7113728 219.708471,61.96793 219.337134,61.96793 L219.151466,61.96793 C218.5532,61.96793 218.161239,61.0806697 217.97557,59.3061224 C217.521713,57.488815 216.129219,55.8853325 213.798046,54.4956268 C211.528762,53.3624822 209.156364,52.7959184 206.680782,52.7959184 C202.472292,52.7959184 198.439216,54.6880277 194.581433,58.4723032 C192.745376,60.4178912 191.827362,61.6151581 191.827362,62.0641399 L191.827362,62.3206997 C191.827362,63.368324 192.043972,64.8221481 192.477199,66.6822157 C192.477199,67.1098175 192.17807,67.3877545 191.579805,67.516035 L191.486971,67.516035 C190.806186,67.516035 190.352336,66.6073949 190.125407,64.7900875 L190.032573,64.7900875 C188.010848,68.9805846 187,73.0961897 187,77.1370262 C187,81.6268446 188.217143,85.5927913 190.651466,89.0349854 C193.890353,93.0116817 198.480426,95 204.421824,95 L204.576547,95 C211.013061,95 216.026041,92.8513334 219.615635,88.5539359 C223.20523,83.8930768 225,78.3343374 225,71.877551 L225,70.7230321 C225,66.062173 223.720968,61.7220803 221.162866,57.7026239 C219.26492,54.7735519 216.263321,52.6355752 212.15798,51.2886297 C211.456565,51.096209 211.054289,51 210.95114,51 L210.796417,51 Z" id="Combined-Shape" fill-rule="nonzero" opacity="0.239999995"></path>
            <path d="M34.7712665,55 L35.4782609,55 C41.9269384,55 49.1039302,57.2665992 57.0094518,61.7998657 C64.3365206,66.8368284 68,72.6393224 68,79.2075218 C68,86.5816353 63.8866196,92.4546457 55.6597353,96.8267293 C50.8392954,98.9422537 46.0510635,100 41.294896,100 C33.8607064,100 27.4549733,97.2700072 22.0775047,91.8099396 C18.6924847,87.5990387 17,83.1262829 17,78.3915379 C17,72.5486612 19.3780481,67.2095608 24.1342155,62.3740766 C26.0623915,57.4580009 29.6080397,55 34.7712665,55 Z M32.2312139,58.4676539 L32.2312139,58.5923617 L32.3641618,58.5923617 C33.2726442,58.4468686 34.3140596,58.3741231 35.4884393,58.3741231 C39.8535864,58.3741231 44.019248,60.0472683 47.9855491,63.3936087 C49.1599288,65.097956 49.7471098,66.3138441 49.7471098,67.0413094 C49.7471098,68.724872 49.0823766,69.8160536 47.7528902,70.314887 L46.8554913,70.4395947 L45.9913295,70.4395947 C45.4152187,70.1693933 45.1271676,69.7744895 45.1271676,69.2548714 L45.1271676,69.1613406 C45.1271676,68.45466 45.7032698,68.0181874 46.8554913,67.8519096 L46.8554913,67.5089634 C46.8554913,65.659123 44.6951083,63.9028402 40.3742775,62.2400624 C38.6459451,61.6788748 37.0616642,61.3982853 35.6213873,61.3982853 L34.7572254,61.3982853 C31.6994067,61.3982853 28.9075271,62.5726045 26.3815029,64.9212783 C25.2957557,68.6625284 24.7528902,72.2582316 24.7528902,75.7084957 C24.7528902,76.7477319 24.7861268,78.0779342 24.8526012,79.6991426 C24.6310201,80.3226843 24.2211013,80.6344505 23.6228324,80.6344505 L23.4898844,80.6344505 C22.581402,80.6344505 22.1271676,79.5848377 22.1271676,77.4855807 C22.0385352,77.2153793 21.9942197,76.7061612 21.9942197,75.9579111 C22.0828521,73.5884527 22.2490354,71.5931492 22.4927746,69.9719408 L22.4927746,69.847233 L22.3598266,69.847233 C20.786601,73.1104346 20,76.1241743 20,78.8885425 C20,84.1470775 22.3265663,88.8755311 26.9797688,93.0740452 C31.4113902,96.3580315 36.3747317,98 41.8699422,98 C50.5780782,98 57.5356194,95.1005746 62.7427746,89.3016368 C64.914269,86.3086366 66,83.2221515 66,80.0420889 L66,79.5744349 C66,72.6531221 61.1252896,66.791918 51.3757225,61.9906469 C44.8833972,59.3302023 39.5876891,58 35.4884393,58 C35.1782258,58 34.0924949,58.1558831 32.2312139,58.4676539 Z" id="Combined-Shape" fill-rule="nonzero" opacity="0.659999967"></path>
        </g>
    </g>
</svg>